<svg width="49" height="49" viewBox="0 0 49 49" fill="none" xmlns="http://www.w3.org/2000/svg">
<rect width="49" height="48.7732" rx="5.93757" fill="url(#paint0_linear_726_510)"/>
<g clip-path="url(#clip0_726_510)">
<path d="M33.9982 21.6918C33.9043 21.5235 33.7671 21.3834 33.6009 21.2858C33.4346 21.1882 33.2454 21.1367 33.0526 21.1366H26.5746L27.684 12.6595C27.7163 12.4136 27.6633 12.164 27.5337 11.9525C27.4042 11.741 27.2059 11.5803 26.9722 11.4974C26.7384 11.4145 26.4832 11.4143 26.2493 11.4968C26.0154 11.5794 25.8169 11.7397 25.687 11.951L17.0572 25.9859C16.9563 26.1501 16.901 26.3382 16.897 26.5308C16.893 26.7235 16.9404 26.9137 17.0345 27.0819C17.1285 27.2501 17.2657 27.3902 17.4319 27.4877C17.5981 27.5852 17.7874 27.6366 17.9801 27.6366H24.3517L23.3546 36.1273C23.3258 36.3724 23.3816 36.62 23.5127 36.8291C23.6437 37.0382 23.8423 37.1963 24.0755 37.2772C24.3087 37.3581 24.5625 37.3569 24.7949 37.2739C25.0273 37.1909 25.2245 37.031 25.3536 36.8207L33.9758 22.7875C34.0766 22.6234 34.1318 22.4353 34.1358 22.2427C34.1397 22.0501 34.0922 21.86 33.9982 21.6918ZM26.0796 31.5005L26.6456 26.6803C26.6636 26.5284 26.6491 26.3744 26.6033 26.2284C26.5574 26.0825 26.4811 25.9479 26.3795 25.8336C26.2778 25.7192 26.1531 25.6277 26.0136 25.565C25.874 25.5024 25.7228 25.47 25.5698 25.47H19.918L24.8781 17.4033L24.2661 22.0794C24.2461 22.2322 24.259 22.3876 24.3038 22.535C24.3486 22.6825 24.4244 22.8187 24.5261 22.9346C24.6277 23.0504 24.7529 23.1432 24.8933 23.2068C25.0337 23.2704 25.1861 23.3033 25.3402 23.3033H31.1156L26.0796 31.5005Z" fill="white"/>
</g>
<defs>
<linearGradient id="paint0_linear_726_510" x1="9.16087" y1="40.3057" x2="52.4064" y2="12.9693" gradientUnits="userSpaceOnUse">
<stop stop-color="#6F90B4"/>
<stop offset="0.567308" stop-color="#2E5A88"/>
<stop offset="1" stop-color="#87BBF3"/>
</linearGradient>
<clipPath id="clip0_726_510">
<rect width="26" height="26" fill="white" transform="translate(12.5195 11.3867)"/>
</clipPath>
</defs>
</svg>
